<svg xmlns="http://www.w3.org/2000/svg" xmlns:xlink="http://www.w3.org/1999/xlink" width="567.17" height="517.31" xmlns:v="https://vecta.io/nano"><g fill="#3f3d56"><path d="M13.551 186.032L488.79 47.567l12.588 43.204L26.139 229.235z"/><path d="M70.329 384.481L.283 144.068a7 7 0 0 1 4.763-8.679L468.764.281a7.01 7.01 0 0 1 8.679 4.762l62.056 212.989-1.92.56L475.522 5.603a5.01 5.01 0 0 0-6.199-3.402L5.605 137.309a5 5 0 0 0-3.402 6.199l70.047 240.413z"/></g><path d="M436.862 219.022a6.51 6.51 0 0 1-6.243-4.683l-11.749-40.323a6.51 6.51 0 0 1 4.422-8.059l40.323-11.749a6.51 6.51 0 0 1 8.059 4.423l11.749 40.323a6.51 6.51 0 0 1-4.422 8.059l-40.323 11.749a6.48 6.48 0 0 1-1.815.26zm-367.616-74.21a11.69 11.69 0 0 0-.43-1.22 12 12 0 0 0-22.91 6.67 11.38 11.38 0 0 0 .29 1.26 12.02 12.02 0 0 0 11.53 8.64 11.75 11.75 0 0 0 3.35-.48c6.357-1.857 10.011-8.509 8.17-14.87zm-8.73 12.95c-5.301 1.538-10.847-1.503-12.4-6.8-.117-.414-.211-.835-.28-1.26a10 10 0 0 1 19.04-5.54 8.34 8.34 0 0 1 .45 1.21c1.537 5.301-1.511 10.846-6.81 12.39zm-20.702-4.38c-1.312-4.505.378-9.347 4.208-12.057a11 11 0 1 0 5.818 19.967c-4.687-.229-8.713-3.405-10.026-7.91z" fill="#2d8cf0"/><path d="M350.676 202.942c-.43-1.546-1.457-2.857-2.854-3.645a6.04 6.04 0 0 0-4.596-.555l-66.39 18.57-7.15 2h44.9l7.15-2 24.75-6.92a6.05 6.05 0 0 0 4.19-7.45zm-46.97-13.87c-.901-3.214-4.236-5.09-7.45-4.19l-99.62 27.86a6.07 6.07 0 0 0-4.37 6.57h25.79l7.16-2 74.3-20.78c3.215-.905 5.09-4.243 4.19-7.46z" fill="#ccc"/><path d="M560.17 217.31h-483a7.01 7.01 0 0 0-7 7v286a7.01 7.01 0 0 0 7 7h483a7.01 7.01 0 0 0 7-7v-286a7.01 7.01 0 0 0-7-7zm5 293c-.001 2.761-2.239 4.999-5 5h-483c-2.761-.001-4.999-2.239-5-5v-286c.001-2.761 2.239-4.999 5-5h483c2.761.001 4.999 2.239 5 5z" fill="#3f3d56"/><g fill="#2d8cf0"><path d="M124.166 256.312c-6.627 0-12-5.373-12-12s5.373-12 12-12 12 5.373 12 12c-.008 6.624-5.376 11.992-12 12zm0-22a10 10 0 1 0 0 20 10 10 0 0 0 10-10c-.006-5.52-4.48-9.994-10-10zm-18.652 10c.001-4.692 2.977-8.868 7.413-10.399a11 11 0 1 0 0 20.798c-4.436-1.531-7.412-5.706-7.413-10.399z"/><use xlink:href="#B"/><use xlink:href="#B" x="24"/><use xlink:href="#B" x="48"/><use xlink:href="#B" x="85"/><use xlink:href="#B" x="109"/><use xlink:href="#B" x="133"/><use xlink:href="#B" x="170"/><use xlink:href="#B" x="194"/><use xlink:href="#B" x="218"/><use xlink:href="#B" x="255"/><use xlink:href="#B" x="279"/><use xlink:href="#B" x="303"/></g><path d="M233.828 486.257h-129.44a6.05 6.05 0 0 1-6.047-6.047 6.05 6.05 0 0 1 6.047-6.047h129.44a6.05 6.05 0 0 1 6.047 6.047 6.05 6.05 0 0 1-6.047 6.047zm-41.5-26h-46.44a6.05 6.05 0 0 1-6.047-6.047 6.05 6.05 0 0 1 6.047-6.047h46.44a6.05 6.05 0 0 1 6.047 6.047 6.05 6.05 0 0 1-6.047 6.047z" fill="#e6e6e6"/><path fill="#3f3d56" d="M71.81 277.09h493v2h-493z"/><defs ><path id="B" d="M172.81 386.09c-4.968-.006-8.994-4.032-9-9v-27a9 9 0 1 1 18 0v27c-.006 4.968-4.032 8.994-9 9z"/></defs></svg>