<svg xmlns="http://www.w3.org/2000/svg" xmlns:xlink="http://www.w3.org/1999/xlink" width="641.513" height="626.392" xmlns:v="https://vecta.io/nano"><path d="M198.101 459.506h-80.357a3.68 3.68 0 0 1-3.674-3.674 3.68 3.68 0 0 1 3.674-3.674h80.357a3.68 3.68 0 0 1 3.674 3.674 3.68 3.68 0 0 1-3.674 3.674h0z" fill="#2d8cf0"/><path d="M54.588 479.173c0 .66.53 1.19 1.19 1.19h204.29c.66 0 1.19-.53 1.19-1.19s-.53-1.19-1.19-1.19H55.778c-.66 0-1.19.53-1.19 1.19z" fill="#3f3d56"/><circle cx="485.607" cy="174.403" r="65" fill="#ff6884"/><g fill="#3f3d56"><path d="M0 561.308c0 .66.53 1.19 1.19 1.19h522.29c.66 0 1.19-.53 1.19-1.19s-.53-1.19-1.19-1.19H1.19c-.66 0-1.19.53-1.19 1.19zm7.555-80.361l-1.671-1.831L168.948 330.32l58.749 26.336 63.44-108.794 52.122-25.124 48.293 80.487c26.073-67.499 91.46-138.118 169.81-209.766l1.927 1.561c-73.485 70.354-136.359 141.028-172.04 212.52l-44.669-74.667c-2.11-3.527-6.545-4.89-10.272-3.156h0a154.31 154.31 0 0 0-68.115 62.023l-39.739 67.971-9.071-4.066a83.48 83.48 0 0 0-90.413 14.51L7.555 480.947z"/><path d="M565.038 107.006l-2.476.172-3.995-8.658-8.944-1.817-.347-2.457 14.743-2.095 1.019 14.855z"/></g><path fill="#ffb6b6" d="M310.684 159.98l8.765-33.697 34.147-1.643 10.216 46.451-53.129-11.111z"/><path opacity=".1" d="M310.684 159.98l8.765-33.697 34.147-1.643 10.216 46.451-53.129-11.111z"/><circle cx="333.154" cy="103.924" r="41.216" fill="#ffb6b6"/><path d="M355.894 112.649h0s-15.657-31.023-34.003-29.231-28.01 3.969-28.01 3.969-5.446-24.162 20.192-33.456c0 0-32.598-32.134 6.213-47.897s60.529 4.341 60.529 4.341 28.728 28.679-7.454 50.115c0 0 26.867 36.139-5.662 65.925 0 0 7.276-24.104-.316-19.659s-11.49 5.893-11.49 5.893h0 0zm-68.215 217.763l-5.483 5.255-39.607 84.925-4.336 140.472h66.546l31.216-69.563 21.033 68.892h59.834l13.87-125.06-37.286-88.445-105.788-16.475z" fill="#2f2e41"/><g fill="#e6e6e6"><path d="M356.614 156.556h-44.441l-48.34 26.013 11.272 50.292s-2.601 30.349 3.468 52.894 3.468 52.027 3.468 52.027l111.424 9.105 3.468-102.319-1.734-68.502-38.586-19.51h0 0z"/><path d="M271.203 183.003s-26.88.867-31.216 18.209-7.804 106.655-7.804 106.655 2.601 52.996 31.65 27.799 26.447-101.503 26.447-101.503l-19.076-51.16h0z"/></g><path d="M531.927 625.392H373.518c-5.365 0-9.73-4.364-9.73-9.73V451.904c0-5.365 4.365-9.73 9.73-9.73h158.409c5.365 0 9.73 4.364 9.73 9.73v163.758c0 5.365-4.364 9.73-9.73 9.73z" fill="#fff"/><path d="M531.927 626.392H373.518c-5.916 0-10.729-4.813-10.729-10.729V451.904c0-5.916 4.813-10.729 10.729-10.729h158.409c5.916 0 10.729 4.813 10.729 10.729v163.758c0 5.917-4.813 10.729-10.729 10.729zM373.518 443.174a8.74 8.74 0 0 0-8.729 8.729v163.758a8.74 8.74 0 0 0 8.729 8.729h158.409a8.74 8.74 0 0 0 8.729-8.729V451.904a8.74 8.74 0 0 0-8.729-8.729H373.518z" fill="#3f3d56"/><path d="M458.974 582.371h-13.056c-1.59 0-2.883-.998-2.883-2.225v-56.211c0-1.227 1.293-2.225 2.883-2.225h13.056c1.59 0 2.883.998 2.883 2.225v56.211c0 1.227-1.293 2.225-2.883 2.225zm-43.165-33.126c-1.284 0-2.329.807-2.329 1.798v29.04c0 .991 1.045 1.798 2.329 1.798h13.056c1.284 0 2.329-.807 2.329-1.798v-29.04c0-.991-1.045-1.798-2.329-1.798h-13.056zm73.273 33.126h-13.056c-1.59 0-2.883-.998-2.883-2.225v-92.12c0-1.227 1.293-2.225 2.883-2.225h13.056c1.59 0 2.883.998 2.883 2.225v92.12c0 1.227-1.293 2.225-2.883 2.225zM208.125 178.572h-14.914c-1.816 0-3.293-1.14-3.293-2.542v-64.21c0-1.402 1.477-2.542 3.293-2.542h14.914c1.816 0 3.293 1.14 3.293 2.542v64.21c0 1.402-1.477 2.542-3.293 2.542h0zm-49.306-37.839c-1.467 0-2.661.921-2.661 2.054v33.172c0 1.132 1.194 2.054 2.661 2.054h14.914c1.467 0 2.661-.921 2.661-2.054v-33.172c0-1.132-1.194-2.054-2.661-2.054h-14.914zm83.698 37.839h-14.914c-1.816 0-3.293-1.14-3.293-2.542V70.802c0-1.402 1.477-2.542 3.293-2.542h14.914c1.816 0 3.293 1.14 3.293 2.542V176.03c0 1.402-1.477 2.542-3.293 2.542h0z" fill="#2d8cf0"/><path d="M428.438 466.001c7.725-.74 13.044-11.178 11.882-23.32-.398-4.857-1.953-9.547-4.535-13.68l-1.489-13.742.228-.068 3.742-65.158c.87-15.15-5.127-30.037-16.681-39.875-6.873-5.852-14.206-8.815-18.921-1.421-7.824 12.269 2.31 62.847 8.965 91.602l2.58 30.728c-1.753 4.549-2.39 9.451-1.86 14.296 1.16 12.138 8.363 21.378 16.088 20.639z" fill="#ffb6b6"/><g fill="#e6e6e6"><path d="M385.662 177.8s22.545-8.671 32.95 17.342 21.678 154.346 21.678 154.346l-52.894-9.538-1.734-162.15h0z"/><use xlink:href="#B"/><use xlink:href="#B" y="-52.079"/><use xlink:href="#B" y="-89.636"/></g><g fill="#3f3d56"><path d="M40.843 178.754c0 .66.53 1.19 1.19 1.19h204.29c.66 0 1.19-.53 1.19-1.19s-.53-1.19-1.19-1.19H42.033c-.66 0-1.19.53-1.19 1.19z"/><use xlink:href="#C"/><use xlink:href="#C" x="-60" y="97"/></g><path d="M237.467 172.738c-7.725.74-13.044 11.178-11.882 23.32.398 4.857 1.953 9.547 4.535 13.68l1.489 13.742-.228.068-3.742 65.158c-.87 15.15 5.127 30.037 16.681 39.875 6.873 5.852 14.206 8.815 18.921 1.421 7.824-12.269-2.31-62.847-8.965-91.602l-2.58-30.728c1.753-4.549 2.391-9.451 1.86-14.296-1.16-12.138-8.363-21.378-16.088-20.639h0 0z" fill="#ffb6b6"/><defs ><path id="B" d="M76.092 165.076H45.735a3.68 3.68 0 0 1-3.674-3.674 3.68 3.68 0 0 1 3.674-3.674h30.357a3.68 3.68 0 0 1 3.674 3.674 3.68 3.68 0 0 1-3.674 3.674z"/><path id="C" d="M434.843 486.754c0 .66.53 1.19 1.19 1.19h204.29c.66 0 1.19-.53 1.19-1.19s-.53-1.19-1.19-1.19h-204.29c-.66 0-1.19.53-1.19 1.19z"/></defs></svg>