<svg xmlns="http://www.w3.org/2000/svg" width="570" height="511.675" xmlns:v="https://vecta.io/nano"><path d="M564.999 195.675c-.204 0-.403-.062-.571-.179L287.87 2.892c-1.724-1.195-4.009-1.191-5.729.01L7.574 195.494a1 1 0 1 1-1.149-1.638L280.993 1.264c2.408-1.681 5.607-1.686 8.02-.013l276.559 192.603a1 1 0 0 1-.572 1.821z" fill="#3f3d56"/><path fill="#e6e6e6" d="M23.264 202.502L285.276 8.319l264 208-250.5 148.5-136-31L23.264 202.502z"/><path d="M174.256 456.541H44.815a6.05 6.05 0 0 1-5.244-9.073 6.05 6.05 0 0 1 5.244-3.021h129.44a6.05 6.05 0 0 1 5.244 9.073 6.05 6.05 0 0 1-5.244 3.021zm-83-26h-46.44a6.05 6.05 0 0 1-5.244-9.073 6.05 6.05 0 0 1 5.244-3.021h46.44a6.05 6.05 0 0 1 5.244 9.073 6.05 6.05 0 0 1-5.244 3.021z" fill="#2d8cf0"/><path d="M288.96 310.659c-.984.001-1.958-.19-2.869-.562L124.5 243.049V33.175a7.01 7.01 0 0 1 7-7h310a7.01 7.01 0 0 1 7 7v210.021l-.304.13-156.28 66.74c-.936.393-1.941.595-2.956.595z" fill="#fff"/><g fill="#3f3d56"><path d="M288.96 311.159a8.07 8.07 0 0 1-3.06-.599L124 243.383V33.175a7.51 7.51 0 0 1 7.5-7.5h310a7.51 7.51 0 0 1 7.5 7.5v210.351l-156.888 66.999a8.11 8.11 0 0 1-3.152.635zM126 242.047l160.663 66.665a6.12 6.12 0 0 0 4.668-.028L447 242.205V33.175a5.51 5.51 0 0 0-5.5-5.5h-310a5.51 5.51 0 0 0-5.5 5.5z"/><path d="M563 193.675h-.2L448 242.695l-157.07 67.07c-1.24.521-2.636.529-3.88.02L125 242.555l-117.62-48.8-.18-.08H7a7.01 7.01 0 0 0-7 7v304a7.01 7.01 0 0 0 7 7h556a7.01 7.01 0 0 0 7-7v-304a7.01 7.01 0 0 0-7-7zm5 311c-.001 2.761-2.239 4.999-5 5H7c-2.761-.001-4.999-2.239-5-5v-304a5.01 5.01 0 0 1 4.81-5L125 244.715l161.28 66.92a7.12 7.12 0 0 0 5.44-.03L448 244.865l115.2-49.19c2.679.116 4.794 2.318 4.8 5z"/></g><path d="M287.345 251.147a27.5 27.5 0 0 1-16.546-5.496l-.296-.222-62.311-47.708c-7.851-6.015-11.896-15.762-10.612-25.569s7.702-18.183 16.837-21.975 19.598-2.421 27.449 3.594l40.36 30.948 95.378-124.387a27.68 27.68 0 0 1 38.813-5.124l-.593.805.608-.793c12.117 9.313 14.409 26.676 5.124 38.813L309.369 240.343c-5.259 6.834-13.401 10.828-22.024 10.804z" fill="#2d8cf0"/></svg>