<svg xmlns="http://www.w3.org/2000/svg" width="250" height="87" viewBox="0 0 66.146 23.019" xmlns:v="https://vecta.io/nano"><path d="M6.473 6.659c-.097.005-.173.085-.173.182v1.086c-2.085.34-3.784 1.808-3.784 4.001 0 2.286 2.121 3.531 4.534 4.013.927.216 2.083.432 2.083 1.371 0 .876-.94 1.27-1.905 1.27-1.143 0-2.057-.673-2.362-1.207l-2.616 1.118c.672 1.458 2.274 2.384 4.027 2.652v1.047c0 .101.081.182.182.182h1.276c.101 0 .182-.081.182-.182v-.998c2.205-.243 4.086-1.795 4.086-3.92.063-2.159-2.019-3.34-4.255-4.064-.991-.305-2.337-.393-2.337-1.359 0-1.003.927-1.41 2.083-1.347.876.051 1.714.585 2.07 1.194l2.452-1.448c-.862-1.333-2.357-2.181-4.075-2.363V6.841c0-.101-.081-.182-.182-.182H6.482z" fill="#17233d"/><path d="M20.981 11.382V8.283h-2.464V4.296h-3.099v3.988h-1.88v3.099h1.88v9.601h3.099v-9.601zm7.595 9.932c2.54 0 4.724-1.575 5.753-3.835l-3.162-.737c-.597.914-1.524 1.486-2.591 1.473-1.587-.025-2.68-1.092-3.023-2.527h9.284c.559-4.089-2.311-7.76-6.261-7.76-3.505 0-6.35 2.997-6.35 6.693s2.845 6.693 6.35 6.693zm-3.124-7.95c.33-1.549 1.587-2.73 3.124-2.73s2.819 1.206 3.124 2.73z" fill="#17233d"/><path d="M40.793 5.616c0-.495.419-.889.914-.889.279 0 .597.152.749.432l2.235-2.184a4 4 0 0 0-2.984-1.346c-2.222 0-4.013 1.791-4.013 3.988v2.667H36.31v3.099h1.384v9.601h3.099v-9.601h3.467v-3.1h-3.467zm7.023 1.029a1.55 1.55 0 0 0 1.6-1.587c0-.889-.711-1.587-1.6-1.587-.914 0-1.613.698-1.613 1.587 0 .914.699 1.587 1.613 1.587zm-1.562 1.638v12.7h3.099v-12.7zm17.679 4.674c0-2.781-2.261-5.029-5.029-5.029-1.384 0-2.629.572-3.492 1.486l-.013-1.13H52.3l.013 12.7h3.099V13.77a2.7 2.7 0 0 1 2.705-2.705 2.71 2.71 0 0 1 2.718 2.705v7.214h3.099z" fill="#2d8cf0"/></svg>