<svg xmlns="http://www.w3.org/2000/svg" xmlns:xlink="http://www.w3.org/1999/xlink" width="782.044" height="701.88" xmlns:v="https://vecta.io/nano"><path d="M400.51 1.53l-25.446 6.562L61.56 88.939l-25.446 6.562c-25.717 6.663-41.188 32.886-34.583 58.618l110.341 427.877c6.663 25.717 32.886 41.188 58.618 34.583l.066-.017 364.265-93.937.066-.017c25.717-6.663 41.188-32.886 34.583-58.618L459.128 36.113C452.465 10.396 426.242-5.075 400.51 1.53z" fill="#f2f2f2"/><path d="M403.97 14.945l-30.139 7.772-304.119 78.426-30.139 7.772c-18.314 4.745-29.331 23.419-24.627 41.743l110.341 427.877c4.745 18.314 23.419 29.331 41.743 24.627l.066-.017L531.36 509.21l.066-.017c18.314-4.745 29.331-23.419 24.627-41.743L445.713 39.573c-4.745-18.314-23.418-29.331-41.743-24.628z" fill="#fff"/><path d="M381.212 153.503l-184.273 47.52c-4.286 1.105-8.656-1.473-9.761-5.759s1.473-8.656 5.759-9.761l184.273-47.52c4.284-1.101 8.65 1.478 9.755 5.761s-1.47 8.651-5.752 9.76zm38.765 17.936l-216.284 55.775c-4.286 1.105-8.656-1.473-9.761-5.759s1.473-8.656 5.759-9.761l216.284-55.775c4.286-1.105 8.656 1.473 9.761 5.759s-1.473 8.656-5.759 9.761zm-8.497 99.438l-184.273 47.52c-2.772.715-5.716-.103-7.721-2.147s-2.768-5.002-2.001-7.76 2.947-4.898 5.72-5.613l184.273-47.52c4.286-1.105 8.656 1.473 9.761 5.759s-1.473 8.656-5.759 9.761zm38.765 17.936l-216.284 55.775c-2.772.715-5.716-.103-7.721-2.147s-2.768-5.002-2.001-7.76 2.947-4.898 5.72-5.613l216.284-55.775c4.286-1.105 8.656 1.473 9.761 5.759s-1.473 8.656-5.759 9.761zm-8.496 99.437l-184.273 47.52c-4.285 1.102-8.651-1.477-9.756-5.76s1.471-8.652 5.754-9.76l184.273-47.52c4.286-1.105 8.656 1.473 9.761 5.759s-1.473 8.656-5.759 9.761zm38.765 17.936L264.23 461.961a8.01 8.01 0 0 1-7.726-2.144c-2.007-2.045-2.771-5.004-2.002-7.764s2.951-4.9 5.726-5.613l216.284-55.775c4.286-1.105 8.656 1.473 9.761 5.759s-1.473 8.656-5.759 9.761z" fill="#f2f2f2"/><g fill="#e6e6e6"><use xlink:href="#B"/><use xlink:href="#B" x="30.268" y="117.373"/><use xlink:href="#B" x="60.537" y="234.747"/><path d="M654.659 109.992H278.34c-26.566.03-48.095 21.559-48.125 48.125v441.876c.03 26.566 21.559 48.095 48.125 48.125h376.318c26.566-.03 48.095-21.559 48.125-48.125V158.117c-.03-26.566-21.559-48.095-48.125-48.125z"/></g><path d="M654.659 123.846H278.34c-18.919.021-34.25 15.352-34.271 34.271v441.876c.021 18.919 15.352 34.25 34.271 34.271h376.319c18.918-.021 34.249-15.353 34.271-34.271V158.117c-.021-18.918-15.352-34.25-34.271-34.271z" fill="#fff"/><circle cx="694.194" cy="614.03" r="87.85" fill="#2d8cf0"/><path d="M736.209 602.571h-30.557v-30.557a11.46 11.46 0 0 0-11.459-11.459 11.46 11.46 0 0 0-11.459 11.459v30.557h-30.557a11.46 11.46 0 0 0-11.459 11.459 11.46 11.46 0 0 0 11.459 11.459h30.557v30.557a11.46 11.46 0 0 0 11.459 11.459 11.46 11.46 0 0 0 11.459-11.459v-30.557h30.557a11.46 11.46 0 0 0 11.459-11.459 11.46 11.46 0 0 0-11.459-11.459z" fill="#fff"/><g fill="#e6e6e6"><path d="M598.023 366.656H407.721c-2.865.003-5.514-1.524-6.948-4.004a8.01 8.01 0 0 1 0-8.019c1.434-2.481 4.083-4.008 6.948-4.004h190.302c4.423.005 8.005 3.592 8.005 8.014s-3.583 8.009-8.005 8.014zm33.058 27.047h-223.36c-2.865.003-5.514-1.524-6.948-4.004a8.01 8.01 0 0 1 0-8.019c1.434-2.481 4.083-4.008 6.948-4.004h223.36c4.426 0 8.014 3.588 8.014 8.014s-3.588 8.014-8.014 8.014zm-33.058 94.166H407.721c-2.865.003-5.514-1.524-6.948-4.004a8.01 8.01 0 0 1 0-8.019c1.434-2.481 4.083-4.008 6.948-4.004h190.302c4.426 0 8.014 3.588 8.014 8.014s-3.588 8.014-8.014 8.014zm33.058 27.048h-223.36c-2.865.003-5.514-1.524-6.948-4.004a8.01 8.01 0 0 1 0-8.019c1.434-2.481 4.083-4.008 6.948-4.004h223.36c2.865-.003 5.514 1.524 6.948 4.004a8.01 8.01 0 0 1 0 8.019c-1.434 2.481-4.083 4.008-6.948 4.004z"/><use xlink:href="#C"/><use xlink:href="#C" y="121.213"/></g><path d="M598.234 231.721H457.932c-4.426 0-8.014-3.588-8.014-8.014s3.588-8.014 8.014-8.014h140.302c4.426 0 8.014 3.588 8.014 8.014s-3.588 8.014-8.014 8.014zm33.058 27.048h-173.36a8.01 8.01 0 0 1-6.94-4.007c-1.431-2.48-1.432-5.535 0-8.014s4.077-4.007 6.94-4.007h173.36c4.426 0 8.014 3.588 8.014 8.014s-3.588 8.014-8.014 8.014z" fill="#ccc"/><path d="M426.881 291.547H297.535a3.85 3.85 0 0 1-3.843-3.843V186.757a3.85 3.85 0 0 1 3.843-3.843h129.346a3.85 3.85 0 0 1 3.843 3.843v100.947a3.85 3.85 0 0 1-3.843 3.843z" fill="#2d8cf0"/><defs ><path id="B" d="M165.481 249.749l-65.212 16.817a3.85 3.85 0 0 1-4.681-2.761l-14.969-58.048a3.85 3.85 0 0 1 2.761-4.681l65.212-16.817a3.85 3.85 0 0 1 4.681 2.761l14.969 58.048a3.85 3.85 0 0 1-2.761 4.681z"/><path id="C" d="M365.092 405.982h-67.346a3.85 3.85 0 0 1-3.843-3.843v-59.947a3.85 3.85 0 0 1 3.843-3.843h67.346a3.85 3.85 0 0 1 3.843 3.843v59.947a3.85 3.85 0 0 1-3.843 3.843z"/></defs></svg>